<svg xmlns="http://www.w3.org/2000/svg" xmlns:xlink="http://www.w3.org/1999/xlink" width="500" zoomAndPan="magnify" viewBox="0 0 375 374.999991" height="500" preserveAspectRatio="xMidYMid meet" version="1.0"><defs><clipPath id="304d136877"><path d="M 32 135.023438 L 288 135.023438 L 288 246 L 32 246 Z M 32 135.023438 " clip-rule="nonzero"/></clipPath><clipPath id="9585b1e944"><path d="M 268.894531 158.339844 L 348.894531 158.339844 L 348.894531 243.652344 L 268.894531 243.652344 Z M 268.894531 158.339844 " clip-rule="nonzero"/></clipPath><clipPath id="311bae1c66"><path d="M 287.59375 229.394531 L 322.386719 229.394531 L 322.386719 263.273438 L 287.59375 263.273438 Z M 287.59375 229.394531 " clip-rule="nonzero"/></clipPath><clipPath id="35269be4a1"><path d="M 123.328125 229.394531 L 158.117188 229.394531 L 158.117188 263.273438 L 123.328125 263.273438 Z M 123.328125 229.394531 " clip-rule="nonzero"/></clipPath><clipPath id="69d7c02b4e"><path d="M 26.4375 192 L 52 192 L 52 206 L 26.4375 206 Z M 26.4375 192 " clip-rule="nonzero"/></clipPath></defs><g clip-path="url(#304d136877)"><path fill="#e60012" d="M 286.855469 142.125 L 266.261719 238.636719 C 265.433594 242.542969 261.5625 245.722656 257.644531 245.722656 L 162.890625 245.722656 C 161.613281 245.722656 160.734375 244.742188 160.898438 243.484375 C 162.199219 233.570312 155.382812 225.796875 145.375 225.796875 C 135.390625 225.796875 125.265625 233.546875 122.316406 243.445312 C 121.949219 244.71875 120.632812 245.722656 119.332031 245.722656 L 107.609375 245.722656 C 103.679688 245.722656 101.164062 242.542969 101.992188 238.636719 L 103.601562 231.089844 L 38.761719 231.089844 C 35.238281 231.089844 32.378906 228.242188 32.378906 224.730469 C 32.378906 221.21875 35.238281 218.367188 38.761719 218.367188 L 122.789062 218.367188 C 126.3125 218.367188 129.175781 215.515625 129.175781 212.003906 C 129.175781 208.492188 126.3125 205.644531 122.789062 205.644531 L 75.875 205.644531 C 72.347656 205.644531 69.488281 202.792969 69.488281 199.28125 C 69.488281 195.769531 72.347656 192.917969 75.875 192.917969 L 128.214844 192.917969 C 131.738281 192.917969 134.597656 190.070312 134.597656 186.558594 C 134.597656 183.046875 131.738281 180.195312 128.214844 180.195312 L 54.132812 180.195312 C 50.609375 180.195312 47.746094 177.34375 47.746094 173.832031 C 47.746094 170.320312 50.609375 167.472656 54.132812 167.472656 L 133.640625 167.472656 C 137.164062 167.472656 140.027344 164.621094 140.027344 161.109375 C 140.027344 157.597656 137.164062 154.746094 133.640625 154.746094 L 75.875 154.746094 C 72.347656 154.746094 69.488281 151.898438 69.488281 148.386719 C 69.488281 144.875 72.347656 142.023438 75.875 142.023438 L 122.613281 142.023438 C 123.480469 138.15625 127.335938 135.023438 131.21875 135.023438 L 281.238281 135.023438 C 285.171875 135.023438 287.683594 138.207031 286.855469 142.125 " fill-opacity="1" fill-rule="nonzero"/></g><g clip-path="url(#9585b1e944)"><path fill="#e60012" d="M 345.894531 195.78125 L 342.8125 192.839844 C 342.269531 192.328125 341.785156 191.722656 341.371094 191.039062 L 323.269531 161.40625 C 322.085938 159.46875 319.960938 158.359375 317.4375 158.359375 L 289.335938 158.359375 C 287.695312 158.359375 286.078125 159.691406 285.730469 161.324219 L 269.03125 239.628906 C 268.5625 241.824219 269.972656 243.613281 272.175781 243.613281 L 286.527344 243.613281 L 286.707031 243.042969 C 289.84375 233.210938 299.703125 225.796875 309.640625 225.796875 C 319.578125 225.796875 326.277344 233.210938 325.21875 243.042969 L 325.160156 243.613281 L 332.140625 243.613281 C 336.765625 243.613281 341.328125 239.859375 342.3125 235.25 L 348.605469 205.746094 C 349.4375 201.84375 348.449219 198.210938 345.894531 195.78125 " fill-opacity="1" fill-rule="nonzero"/></g><g clip-path="url(#311bae1c66)"><path fill="#e60012" d="M 303.203125 254.832031 C 298.515625 254.832031 295.511719 251.03125 296.507812 246.359375 C 297.503906 241.6875 302.128906 237.886719 306.816406 237.886719 C 311.507812 237.886719 314.511719 241.6875 313.511719 246.359375 C 312.515625 251.03125 307.890625 254.832031 303.203125 254.832031 Z M 308.617188 229.441406 C 299.257812 229.441406 290.027344 237.03125 288.035156 246.359375 C 286.050781 255.6875 292.042969 263.277344 301.402344 263.277344 C 310.761719 263.277344 319.996094 255.6875 321.984375 246.359375 C 323.972656 237.03125 317.976562 229.441406 308.617188 229.441406 " fill-opacity="1" fill-rule="nonzero"/></g><g clip-path="url(#35269be4a1)"><path fill="#e60012" d="M 138.9375 254.832031 C 134.25 254.832031 131.246094 251.03125 132.242188 246.359375 C 133.242188 241.6875 137.863281 237.886719 142.554688 237.886719 C 147.242188 237.886719 150.246094 241.6875 149.246094 246.359375 C 148.25 251.03125 143.625 254.832031 138.9375 254.832031 Z M 144.351562 229.441406 C 134.996094 229.441406 125.761719 237.03125 123.773438 246.359375 C 121.785156 255.6875 127.777344 263.277344 137.136719 263.277344 C 146.496094 263.277344 155.730469 255.6875 157.71875 246.359375 C 159.707031 237.03125 153.714844 229.441406 144.351562 229.441406 " fill-opacity="1" fill-rule="nonzero"/></g><path fill="#ffffff" d="M 313.699219 165.992188 L 297.324219 165.992188 C 294.601562 165.992188 291.925781 168.191406 291.347656 170.902344 L 286.839844 192.039062 C 286.261719 194.753906 287.996094 196.953125 290.722656 196.953125 L 321.03125 196.953125 C 324.953125 196.953125 328.230469 192.609375 326.773438 189.339844 L 317.34375 168.207031 C 316.730469 166.824219 315.359375 165.992188 313.699219 165.992188 " fill-opacity="1" fill-rule="nonzero"/><path fill="#e60012" d="M 59.890625 148.382812 C 59.890625 151.898438 57.03125 154.746094 53.507812 154.746094 L 41.722656 154.746094 C 38.199219 154.746094 35.339844 151.898438 35.339844 148.382812 C 35.339844 144.871094 38.199219 142.023438 41.722656 142.023438 L 53.507812 142.023438 C 57.03125 142.023438 59.890625 144.871094 59.890625 148.382812 " fill-opacity="1" fill-rule="nonzero"/><g clip-path="url(#69d7c02b4e)"><path fill="#e60012" d="M 51.042969 199.28125 C 51.042969 202.792969 48.183594 205.644531 44.660156 205.644531 L 32.863281 205.644531 C 29.339844 205.644531 26.480469 202.792969 26.480469 199.28125 C 26.480469 195.769531 29.339844 192.917969 32.863281 192.917969 L 44.660156 192.917969 C 48.183594 192.917969 51.042969 195.769531 51.042969 199.28125 " fill-opacity="1" fill-rule="nonzero"/></g></svg>