<svg xmlns="http://www.w3.org/2000/svg" xmlns:xlink="http://www.w3.org/1999/xlink" width="500" zoomAndPan="magnify" viewBox="0 0 375 374.999991" height="500" preserveAspectRatio="xMidYMid meet" version="1.0"><defs><clipPath id="3637933120"><path d="M 259 82 L 349.898438 82 L 349.898438 166 L 259 166 Z M 259 82 " clip-rule="nonzero"/></clipPath><clipPath id="9790263203"><path d="M 175 252 L 218 252 L 218 294.847656 L 175 294.847656 Z M 175 252 " clip-rule="nonzero"/></clipPath><clipPath id="a2af6a9ec6"><path d="M 25.148438 80.347656 L 116 80.347656 L 116 163 L 25.148438 163 Z M 25.148438 80.347656 " clip-rule="nonzero"/></clipPath></defs><g clip-path="url(#3637933120)"><path fill="#e60012" d="M 282.007812 82.574219 L 259.527344 105.054688 L 263.457031 108.988281 C 263.46875 108.988281 263.46875 108.988281 263.46875 108.992188 L 314.476562 160 C 317.789062 163.3125 322.199219 165.136719 326.871094 165.136719 C 331.554688 165.136719 335.96875 163.3125 339.273438 159.996094 L 349.351562 149.914062 Z M 282.007812 82.574219 " fill-opacity="1" fill-rule="nonzero"/></g><path fill="#e60012" d="M 270.109375 212.554688 L 266.011719 208.453125 L 261.90625 204.347656 L 251.8125 194.261719 C 250.191406 192.625 248.023438 191.734375 245.722656 191.734375 C 243.421875 191.734375 241.257812 192.625 239.636719 194.261719 C 236.277344 197.609375 236.277344 203.074219 239.636719 206.433594 L 249.726562 216.527344 L 253.835938 220.632812 L 257.9375 224.734375 L 264.25 231.039062 C 265.875 232.671875 268.039062 233.5625 270.335938 233.5625 C 272.640625 233.5625 274.796875 232.671875 276.425781 231.039062 C 279.785156 227.691406 279.785156 222.226562 276.425781 218.871094 Z M 270.109375 212.554688 " fill-opacity="1" fill-rule="nonzero"/><path fill="#e60012" d="M 249.734375 232.9375 L 241.539062 224.734375 L 231.441406 214.636719 C 229.8125 213.011719 227.65625 212.113281 225.347656 212.113281 C 223.046875 212.113281 220.890625 213.011719 219.265625 214.636719 C 215.90625 217.988281 215.90625 223.449219 219.265625 226.808594 L 229.359375 236.90625 L 237.5625 245.109375 L 243.878906 251.417969 C 245.5 253.042969 247.671875 253.9375 249.964844 253.9375 C 252.265625 253.9375 254.433594 253.050781 256.058594 251.417969 C 259.410156 248.066406 259.40625 242.601562 256.058594 239.246094 Z M 249.734375 232.9375 " fill-opacity="1" fill-rule="nonzero"/><path fill="#e60012" d="M 235.671875 259.621094 L 229.359375 253.308594 L 225.257812 249.203125 L 211.058594 235.003906 C 209.441406 233.386719 207.269531 232.484375 204.972656 232.484375 C 202.667969 232.484375 200.507812 233.378906 198.882812 235.003906 C 197.257812 236.632812 196.363281 238.796875 196.363281 241.09375 C 196.363281 243.386719 197.25 245.542969 198.875 247.179688 C 198.878906 247.179688 198.878906 247.179688 198.882812 247.179688 L 208.976562 257.277344 L 213.082031 261.378906 L 217.179688 265.480469 L 223.496094 271.792969 C 225.125 273.429688 227.28125 274.324219 229.585938 274.324219 C 231.886719 274.324219 234.046875 273.429688 235.671875 271.792969 C 237.300781 270.167969 238.199219 268.007812 238.199219 265.707031 C 238.199219 263.410156 237.300781 261.253906 235.675781 259.628906 C 235.683594 259.628906 235.683594 259.628906 235.671875 259.621094 Z M 235.671875 259.621094 " fill-opacity="1" fill-rule="nonzero"/><g clip-path="url(#9790263203)"><path fill="#e60012" d="M 208.984375 273.683594 L 204.886719 269.582031 L 200.785156 265.484375 L 190.691406 255.382812 C 189.054688 253.765625 186.894531 252.855469 184.597656 252.855469 C 182.300781 252.855469 180.144531 253.753906 178.515625 255.382812 C 175.15625 258.734375 175.15625 264.203125 178.515625 267.5625 L 188.609375 277.652344 L 192.710938 281.761719 L 196.8125 285.863281 L 203.128906 292.171875 C 204.75 293.796875 206.910156 294.691406 209.214844 294.691406 C 211.519531 294.691406 213.683594 293.808594 215.300781 292.171875 C 218.652344 288.820312 218.652344 283.355469 215.300781 279.996094 Z M 208.984375 273.683594 " fill-opacity="1" fill-rule="nonzero"/></g><path fill="#e60012" d="M 242.359375 126.960938 C 235.046875 126.960938 228.175781 124.113281 223.011719 118.945312 C 220.035156 115.96875 216.070312 114.332031 211.863281 114.332031 C 207.644531 114.332031 203.695312 115.972656 200.714844 118.949219 L 196.8125 122.855469 L 239.460938 165.503906 C 240.546875 166.59375 241.167969 168.082031 241.160156 169.625 C 241.160156 171.171875 240.535156 172.644531 239.441406 173.734375 L 226.726562 186.289062 C 221.554688 191.375 214.71875 194.1875 207.464844 194.1875 C 200.140625 194.1875 193.261719 191.335938 188.082031 186.160156 L 170.113281 168.195312 C 167.589844 165.671875 164.242188 164.285156 160.675781 164.285156 C 157.863281 164.285156 155.125 165.207031 152.859375 166.828125 L 111.242188 208.4375 L 111.238281 208.441406 L 103.027344 216.65625 C 99.667969 220.007812 99.667969 225.472656 103.027344 228.828125 C 104.652344 230.445312 106.8125 231.347656 109.117188 231.347656 C 111.417969 231.347656 113.578125 230.457031 115.207031 228.828125 C 117.46875 226.5625 121.140625 226.5625 123.402344 228.828125 C 124.539062 229.960938 125.105469 231.441406 125.105469 232.921875 C 125.105469 234.414062 124.539062 235.898438 123.402344 237.027344 C 120.046875 240.382812 120.046875 245.851562 123.402344 249.207031 C 125.035156 250.824219 127.191406 251.730469 129.496094 251.730469 C 131.792969 251.730469 133.953125 250.835938 135.578125 249.207031 C 137.847656 246.941406 141.515625 246.941406 143.78125 249.207031 C 144.914062 250.339844 145.480469 251.820312 145.480469 253.3125 C 145.480469 254.796875 144.914062 256.277344 143.78125 257.414062 C 142.152344 259.035156 141.257812 261.203125 141.257812 263.507812 C 141.257812 265.804688 142.152344 267.96875 143.78125 269.59375 C 145.410156 271.210938 147.566406 272.113281 149.867188 272.113281 C 152.167969 272.113281 154.328125 271.210938 155.953125 269.59375 C 158.222656 267.328125 161.894531 267.328125 164.160156 269.59375 C 165.292969 270.726562 165.859375 272.207031 165.859375 273.6875 C 165.859375 275.175781 165.292969 276.660156 164.160156 277.789062 C 160.804688 281.148438 160.804688 286.609375 164.160156 289.972656 C 165.785156 291.601562 167.945312 292.492188 170.242188 292.492188 C 172.546875 292.492188 174.703125 291.601562 176.339844 289.972656 L 180.425781 285.878906 L 170.328125 275.78125 C 162.445312 267.902344 162.445312 255.085938 170.328125 247.203125 C 174.136719 243.386719 179.214844 241.285156 184.617188 241.285156 C 184.671875 241.285156 184.726562 241.289062 184.792969 241.289062 C 184.792969 241.222656 184.785156 241.179688 184.785156 241.113281 C 184.785156 235.714844 186.882812 230.632812 190.695312 226.824219 C 194.511719 223.015625 199.59375 220.90625 204.988281 220.90625 C 205.054688 220.90625 205.109375 220.917969 205.179688 220.917969 C 205.132812 215.675781 207.089844 210.425781 211.078125 206.449219 C 214.898438 202.625 219.964844 200.53125 225.363281 200.53125 C 225.429688 200.53125 225.484375 200.539062 225.554688 200.539062 C 225.5 195.308594 227.464844 190.050781 231.453125 186.074219 C 235.277344 182.25 240.347656 180.152344 245.738281 180.152344 C 251.136719 180.152344 256.210938 182.25 260.027344 186.074219 L 270.113281 196.160156 L 302.164062 164.109375 L 259.21875 121.148438 C 254.421875 124.921875 248.542969 126.960938 242.359375 126.960938 Z M 242.359375 126.960938 " fill-opacity="1" fill-rule="nonzero"/><path fill="#e60012" d="M 142.953125 160.042969 C 143.652344 159.34375 144.398438 158.699219 145.179688 158.09375 C 149.042969 155.039062 153.777344 153.175781 158.695312 152.785156 C 159.335938 152.730469 159.976562 152.679688 160.621094 152.679688 C 162.570312 152.679688 164.46875 152.921875 166.320312 153.351562 C 170.828125 154.390625 174.957031 156.648438 178.300781 159.984375 L 196.269531 177.957031 C 199.253906 180.941406 203.222656 182.589844 207.449219 182.589844 C 211.628906 182.589844 215.578125 180.972656 218.554688 178.03125 L 227.117188 169.570312 L 188.605469 131.058594 L 184.5 126.960938 L 180.398438 122.855469 L 174.269531 116.722656 C 171.289062 113.738281 167.328125 112.101562 163.125 112.101562 C 158.910156 112.101562 154.953125 113.742188 151.976562 116.722656 C 146.808594 121.890625 139.933594 124.734375 132.628906 124.734375 C 126.433594 124.734375 120.554688 122.695312 115.769531 118.929688 L 72.828125 161.867188 L 107.097656 196.140625 Z M 142.953125 160.042969 " fill-opacity="1" fill-rule="nonzero"/><g clip-path="url(#a2af6a9ec6)"><path fill="#e60012" d="M 111.53125 106.765625 L 115.46875 102.828125 L 92.988281 80.347656 L 25.636719 147.695312 L 35.714844 157.773438 C 39.03125 161.082031 43.429688 162.910156 48.113281 162.910156 C 52.800781 162.910156 57.210938 161.089844 60.511719 157.78125 L 111.523438 106.769531 C 111.523438 106.765625 111.53125 106.765625 111.53125 106.765625 Z M 111.53125 106.765625 " fill-opacity="1" fill-rule="nonzero"/></g></svg>