<svg xmlns="http://www.w3.org/2000/svg" xmlns:xlink="http://www.w3.org/1999/xlink" width="500" zoomAndPan="magnify" viewBox="0 0 375 374.999991" height="500" preserveAspectRatio="xMidYMid meet" version="1.0"><defs><clipPath id="de508d29b7"><path d="M 70.867188 149 L 304.117188 149 L 304.117188 312.585938 L 70.867188 312.585938 Z M 70.867188 149 " clip-rule="nonzero"/></clipPath></defs><path fill="#e60012" d="M 265.25 126.265625 L 253.585938 134.621094 C 251.839844 135.789062 251.449219 138.316406 252.617188 140.066406 C 253.394531 141.230469 254.558594 141.621094 255.726562 141.621094 C 256.503906 141.621094 257.28125 141.425781 257.863281 140.84375 L 269.527344 132.484375 C 271.277344 131.316406 271.664062 128.792969 270.5 127.042969 C 269.332031 125.488281 267 125.097656 265.25 126.265625 Z M 265.25 126.265625 " fill-opacity="1" fill-rule="nonzero"/><g clip-path="url(#de508d29b7)"><path fill="#e60012" d="M 298.296875 204.019531 L 298.296875 168.835938 C 298.296875 158.144531 289.742188 149.394531 279.050781 149.394531 L 90.109375 149.394531 C 79.417969 149.394531 70.867188 158.144531 70.867188 168.835938 L 70.867188 293.242188 C 70.867188 303.933594 79.417969 312.679688 90.109375 312.679688 L 279.050781 312.679688 C 289.742188 312.679688 298.296875 303.933594 298.296875 293.242188 L 298.296875 258.058594 C 301.601562 257.28125 304.128906 254.167969 304.128906 250.476562 L 304.128906 211.597656 C 304.128906 207.90625 301.601562 204.988281 298.296875 204.019531 Z M 296.351562 211.597656 L 296.351562 250.476562 L 234.730469 250.476562 C 228.316406 250.476562 223.070312 245.226562 223.070312 238.8125 L 223.070312 223.261719 C 223.070312 216.847656 228.316406 211.597656 234.730469 211.597656 Z M 279.050781 304.902344 L 90.109375 304.902344 C 83.695312 304.902344 78.445312 299.65625 78.445312 293.242188 L 78.445312 168.835938 C 78.445312 162.417969 83.695312 157.171875 90.109375 157.171875 L 279.050781 157.171875 C 285.464844 157.171875 290.714844 162.417969 290.714844 168.835938 L 290.714844 203.824219 L 234.730469 203.824219 C 224.042969 203.824219 215.488281 212.570312 215.488281 223.261719 L 215.488281 238.8125 C 215.488281 249.503906 224.042969 258.25 234.730469 258.25 L 290.714844 258.25 L 290.714844 293.242188 C 290.714844 299.65625 285.464844 304.902344 279.050781 304.902344 Z M 279.050781 304.902344 " fill-opacity="1" fill-rule="nonzero"/></g><path fill="#e60012" d="M 242.898438 231.039062 C 242.898438 231.554688 242.796875 232.050781 242.601562 232.523438 C 242.402344 233 242.121094 233.421875 241.757812 233.785156 C 241.394531 234.152344 240.972656 234.433594 240.496094 234.628906 C 240.019531 234.828125 239.523438 234.925781 239.007812 234.925781 C 238.492188 234.925781 237.996094 234.828125 237.519531 234.628906 C 237.042969 234.433594 236.625 234.152344 236.261719 233.785156 C 235.894531 233.421875 235.613281 233 235.417969 232.523438 C 235.21875 232.050781 235.121094 231.554688 235.121094 231.039062 C 235.121094 230.523438 235.21875 230.027344 235.417969 229.550781 C 235.613281 229.074219 235.894531 228.652344 236.261719 228.289062 C 236.625 227.925781 237.042969 227.644531 237.519531 227.445312 C 237.996094 227.25 238.492188 227.148438 239.007812 227.148438 C 239.523438 227.148438 240.019531 227.25 240.496094 227.445312 C 240.972656 227.644531 241.394531 227.925781 241.757812 228.289062 C 242.121094 228.652344 242.402344 229.074219 242.601562 229.550781 C 242.796875 230.027344 242.898438 230.523438 242.898438 231.039062 Z M 242.898438 231.039062 " fill-opacity="1" fill-rule="nonzero"/><path fill="#e60012" d="M 207.324219 72.417969 C 207.90625 71.835938 208.683594 71.640625 209.65625 71.640625 C 210.824219 71.640625 211.988281 72.226562 212.765625 73.195312 L 215.878906 77.472656 L 126.460938 141.621094 L 139.679688 141.621094 L 236.09375 72.417969 C 236.871094 71.835938 237.648438 71.640625 238.425781 71.640625 C 239.59375 71.640625 240.757812 72.226562 241.535156 73.195312 L 249.503906 84.082031 L 170.390625 141.621094 L 183.609375 141.621094 L 254.171875 90.496094 L 289.9375 139.675781 C 290.519531 140.453125 290.714844 141.425781 290.519531 142.398438 C 290.519531 142.980469 290.132812 143.5625 289.9375 143.953125 C 292.269531 144.925781 294.601562 146.480469 296.546875 148.035156 C 297.324219 146.675781 298.101562 145.121094 298.296875 143.5625 C 298.878906 140.453125 298.101562 137.34375 296.15625 135.011719 L 247.949219 68.726562 C 244.257812 63.476562 236.871094 62.3125 231.816406 66.199219 L 222.292969 73.003906 L 219.179688 68.726562 C 215.488281 63.476562 208.101562 62.3125 203.046875 66.199219 L 97.496094 141.621094 L 110.714844 141.621094 Z M 207.324219 72.417969 " fill-opacity="1" fill-rule="nonzero"/></svg>